<?xml version="1.0" encoding="UTF-8" standalone="no"?>
<!-- Created with Inkscape (http://www.inkscape.org/) -->

<svg
   width="210mm"
   height="297mm"
   viewBox="0 0 210 297"
   version="1.1"
   id="svg5"
   inkscape:version="1.2.2 (732a01da63, 2022-12-09, custom)"
   sodipodi:docname="down"
   xmlns:inkscape="http://www.inkscape.org/namespaces/inkscape"
   xmlns:sodipodi="http://sodipodi.sourceforge.net/DTD/sodipodi-0.dtd"
   xmlns="http://www.w3.org/2000/svg"
   xmlns:svg="http://www.w3.org/2000/svg">
  <sodipodi:namedview
     id="namedview7"
     pagecolor="#ffffff"
     bordercolor="#999999"
     borderopacity="1"
     inkscape:showpageshadow="0"
     inkscape:pageopacity="0"
     inkscape:pagecheckerboard="0"
     inkscape:deskcolor="#d1d1d1"
     inkscape:document-units="mm"
     showgrid="false"
     inkscape:zoom="0.70199214"
     inkscape:cx="90.456853"
     inkscape:cy="460.83137"
     inkscape:window-width="1920"
     inkscape:window-height="1016"
     inkscape:window-x="0"
     inkscape:window-y="0"
     inkscape:window-maximized="1"
     inkscape:current-layer="layer1" />
  <defs
     id="defs2" />
  <g
     inkscape:label="Layer 1"
     inkscape:groupmode="layer"
     id="layer1">
    <path
       style="fill:#000000;fill-opacity:0;stroke-width:0.264583"
       d="m -9.1163546,94.994417 55.5417436,76.152183 49.206525,-42.62396 95.715836,28.52247 60.17059,-28.99655 -0.72289,-26.51722 z"
       id="path916" />
    <path
       style="fill:#000000;fill-opacity:0;stroke-width:0.264583"
       d="M 50.711195,118.88951 -213.79412,66.251105"
       id="path918" />
    <path
       style="fill:#000000;fill-opacity:0;stroke-width:0.264583"
       d="m 23.057369,85.863339 c 2.670715,6.486864 43.941655,35.016701 43.941655,35.016701 L 112.87084,79.826995 54.090077,62.323064 Z"
       id="path969" />
    <path
       style="fill:#000000;fill-opacity:0;stroke-width:0.264583"
       d="M 10.634275,73.952599 48.306963,109.07235 79.369115,81.051931 112.43799,110.8332 134.62376,67.428929 Z"
       id="path971" />
    <rect
       style="fill:#000000;fill-opacity:0;stroke-width:0.264583"
       id="rect1025"
       width="80.719193"
       height="63.630447"
       x="48.498356"
       y="104.74386" />
    <path
       style="opacity:1;fill:#000000;fill-opacity:1;stroke-width:0.264583"
       d="M -6.3425799,7.8104428 43.511747,88.485468 72.85575,32.272366 l 73.17376,30.22001 75.33507,-21.626314 c 0,0 3.4525,-58.640892 1.56945,-58.640892 -1.88304,0 -226.7840408,7.183251 -226.7840408,7.183251 z"
       id="path2770" />
  </g>
</svg>
